# xmcd CD database file
#
# Track frame offsets:
#	150
#	13997
#	27900
#	41062
#	52692
#	66127
#	79627
#	94415
#	105895
#	118680
#	133552
#	147240
#	160630
#	173295
#	186362
#	200777
#	216710
#	231002
#	244545
#	258265
#	273190
#	286577
#	300492
#	316175
#
# Disc length: 4404 seconds
#
# Revision: 3
# Processed by: cddbd v1.5.1PL0 Copyright (c) Steve Scherf et al.
# Submitted via: CDex 1.51
#
DISCID=42113218
DTITLE=Sonny Boy Williamson - The Bluebird Recordings:  1937 - 1938
DYEAR=1900
DGENRE=
TTITLE0=Good Morning School Girl
TTITLE1=Blue Bird Blues
TTITLE2=Jackson Blues
TTITLE3=Got The Bottle Up And Gone
TTITLE4=Sugar Mama Blues
TTITLE5=Skinny Woman
TTITLE6=Up The Country Blues
TTITLE7=Worried Me Blues
TTITLE8=Black Gal Blues
TTITLE9=Collector Man Blues
TTITLE10=Frigidaire Blues
TTITLE11=Suzanna Blues
TTITLE12=Early In The Morning
TTITLE13=Project Highway
TTITLE14=My Little Cornelius
TTITLE15=Decoration Blues
TTITLE16=You Can Lead Me
TTITLE17=Moonshine
TTITLE18=Miss Louisa Blues
TTITLE19=Sunny Land
TTITLE20=I'm Tired Of Truckin' My Blues Away
TTITLE21=Down South
TTITLE22=Beauty Parlor
TTITLE23=Until My Love Come Down
EXTD=RCA 07863 66723-2
EXTT0=
EXTT1=
EXTT2=
EXTT3=
EXTT4=
EXTT5=
EXTT6=
EXTT7=
EXTT8=
EXTT9=
EXTT10=
EXTT11=
EXTT12=
EXTT13=
EXTT14=
EXTT15=
EXTT16=
EXTT17=
EXTT18=
EXTT19=
EXTT20=
EXTT21=
EXTT22=
EXTT23=
PLAYORDER=
